<svg width="1879" height="2034" viewBox="0 0 1879 2034" fill="none" xmlns="http://www.w3.org/2000/svg">
<path d="M921.699 2008.55L22.5 1524.56V509.935L921.699 25.451L1856 510.175V1524.32L921.699 2008.55Z" fill="#DD392D" stroke="white" stroke-width="45"/>
<path d="M435.679 934.378V693.889L678.775 825.864L907.859 718.329L428.836 467.086L219.304 573.644V1029.53L435.679 934.378Z" fill="white"/>
<path d="M805.536 518.247L565.373 394.744L921.219 209L1291.73 404.845L1040.49 518.247L921.219 461.546L805.536 518.247Z" fill="white"/>
<path d="M1190.38 594.825L1445.21 481.424L1629 575.925L1622.16 846.394L485.21 1362.57L647.491 1457.07L399.507 1574.05L218 1478.25L224.843 1209.08L1355.27 696.17L1190.38 594.825Z" fill="white"/>
<path d="M1628.02 1470.43V1016.17L1415.56 1111.65L1408.39 1351.49L1163.66 1227.01L939.142 1328.68L1417.19 1584.15L1628.02 1470.43Z" fill="white"/>
<path d="M800.649 1541.79L568.307 1647.7L923.827 1834.75L1294.66 1647.7L1068.19 1536.9L923.827 1598.49L800.649 1541.79Z" fill="white"/>
</svg>
