<svg width="2609" height="2175" viewBox="0 0 2609 2175" fill="none" xmlns="http://www.w3.org/2000/svg">
<path d="M57 990.259L972.693 1441.17V2094.12L1565.88 1899.21L2238.12 2144L2580 35L57 990.259Z" fill="#DD392D" stroke="white" stroke-width="45"/>
<path d="M2339.41 369.516C2332.88 350.259 2325.07 345.191 2312.89 340.377C2286.24 330.495 2241.09 345.445 2241.09 345.445C2241.09 345.445 642.938 920.117 551.636 983.716C531.977 997.399 525.391 1005.51 522.123 1014.88C506.34 1059.98 555.512 1080 555.512 1080L967.433 1214.29C967.433 1214.29 982.785 1216.58 988.257 1213.03C1081.97 1153.74 1931.06 617.578 1980.03 599.588C1987.76 597.307 1993.49 599.841 1991.97 605.162C1972.36 674.082 1234.88 1329.58 1234.88 1329.58C1234.88 1329.58 1232.07 1333.13 1230.29 1337.19L1229.33 1336.68L1190.9 1745.39C1190.9 1745.39 1174.79 1870.56 1299.96 1745.39C1388.27 1656.95 1473.72 1582.97 1516.48 1547.24C1658.12 1645.05 1810.55 1753.24 1876.34 1809.74C1909.38 1838.12 1937.02 1842.68 1959.77 1841.92C2022.21 1839.64 2039.64 1770.98 2039.64 1770.98C2039.64 1770.98 2330.87 598.574 2340.6 441.477C2341.57 426.021 2342.88 416.392 2342.98 405.75C2343.16 391.053 2341.79 376.357 2339.41 369.516Z" fill="white"/>
</svg>
