<svg width="2565" height="2049" viewBox="0 0 2565 2049" fill="none" xmlns="http://www.w3.org/2000/svg">
<path d="M903 1029L49 23H1188.27L1462.71 355.035L1554.2 23H2519L1808.14 946.457L2502.5 2014.7H1662.67L1213.26 1525.09L967.814 2014.7C704.534 2023.23 179.674 2035.17 186.472 2014.7C193.271 1994.24 728.535 1361.04 903 1029Z" fill="#DD392D" stroke="white" stroke-width="45"/>
<path d="M1731.12 1693.08L1309.76 1080.88L1249.75 993.733L760.815 283.347H971.135L1366.55 857.853L1426.55 945L1941.44 1693.08H1731.12ZM2028.39 1633.28L1497.68 862.267L1437.68 775.067L1058.04 223.533L1026.58 177.827H560.088L673.857 343.147L1178.62 1076.56L1238.63 1163.67L1644.2 1752.95L1675.67 1798.6H2142.16L2028.39 1633.28Z" fill="white"/>
<path d="M1249.75 993.733L1309.76 1080.88L1238.63 1163.67L692.851 1798.6H558.266L1178.62 1076.56L1249.75 993.733Z" fill="white"/>
<path d="M2086 177.827L1497.68 862.267L1426.55 945L1366.55 857.854L1437.68 775.067L1836.2 311.214L1951.41 177.827H2086Z" fill="white"/>
</svg>
